<?xml version="1.0" encoding="utf-8"?>
<!-- Uploaded to: SVG Repo, www.svgrepo.com, Generator: SVG Repo Mixer Tools -->
<svg width="800px" height="800px" viewBox="0 -74.5 1173 1173" fill="#ffffff" class="icon"
    version="1.1" xmlns="http://www.w3.org/2000/svg">
    <path
        d="M1104.639375 934.623599H693.894583V657.72034h85.807294c24.686327 0 44.613844-19.927517 44.613844-44.613844v-173.993992c0-24.686327-19.927517-44.613844-44.613844-44.613844h-85.807294v-110.791046h41.19345v44.613844c0 17.548112 10.261184 33.460383 26.322168 40.747311l199.27517 89.525114c5.7998 2.676831 12.045738 3.866533 18.291676 3.866533 8.47663 0 16.953261-2.379405 24.240189-7.138215 12.789302-8.179205 20.373655-22.306922 20.373655-37.475629V44.726122a44.703072 44.703072 0 0 0-66.920766-38.814044L824.167008 81.904326v-4.163959c0-24.686327-19.927517-44.613844-44.613844-44.613844s-44.613844 19.927517-44.613844 44.613844V194.628638h-41.193449V128.451436c0-24.686327-19.927517-44.613844-44.613845-44.613844h-125.513614c-24.686327 0-44.613844 19.927517-44.613844 44.613844v66.177202h-41.490875V77.740367c0-24.686327-19.927517-44.613844-44.613844-44.613844s-44.613844 19.927517-44.613844 44.613844v4.312671L215.9316 6.060791a44.703072 44.703072 0 0 0-66.920766 38.814044v373.269162c0 15.168707 7.733066 29.296424 20.373656 37.475629 7.286928 4.75881 15.763558 7.138215 24.240188 7.138215 6.245938 0 12.491876-1.338415 18.291676-3.866533l199.275171-89.525114a44.56923 44.56923 0 0 0 26.322168-40.747311v-44.613844h41.490875v650.767273H81.941355c-24.686327 0-44.613844 19.927517-44.613844 44.613844s19.927517 44.613844 44.613844 44.613844h1022.69802c24.686327 0 44.613844-19.927517 44.613844-44.613844s-19.927517-44.762557-44.613844-44.762557zM934.363203 121.75936v227.233179l-110.047482-49.521367V184.813593l110.047482-63.054233z m-585.928486 177.860525l-110.047482 49.521367V121.75936l110.047482 63.202946V299.619885z m386.653316 184.106463v84.617591h-41.19345v-84.617591h41.19345zM568.380969 173.06528h36.285926v21.563358h-36.285926v-21.563358z m0 110.791047h36.285926v650.767272h-36.285926V283.856327zM1066.420182 325.942053c8.625343 8.774056 20.07623 13.086728 31.527116 13.086727s22.901773-4.312672 31.527117-13.086727a146.571349 146.571349 0 0 0 43.275428-104.396395c0-39.408896-15.31742-76.438386-43.275428-104.396396a44.613844 44.613844 0 0 0-63.054233 0 44.613844 44.613844 0 0 0 0 63.054233 58.14671 58.14671 0 0 1 17.101973 41.342163c0 15.614845-6.097225 30.188701-17.101973 41.193449a44.792299 44.792299 0 0 0 0 63.202946zM74.80314 339.02878c11.450887 0 22.901773-4.312672 31.527117-13.086727a44.613844 44.613844 0 0 0 0-63.054233A58.14671 58.14671 0 0 1 89.228283 221.545658c0-15.614845 6.097225-30.188701 17.101974-41.342163a44.613844 44.613844 0 0 0 0-63.054233 44.613844 44.613844 0 0 0-63.054233 0A146.571349 146.571349 0 0 0 0.000595 221.545658c0 39.408896 15.31742 76.438386 43.275429 104.396395 8.625343 8.774056 20.07623 13.086728 31.527116 13.086727z" />
</svg>